<?xml version="1.0" encoding="UTF-8"?>
<svg id="Layer_2" data-name="Layer 2" xmlns="http://www.w3.org/2000/svg" xmlns:xlink="http://www.w3.org/1999/xlink" viewBox="0 0 592.88 219.41">
  <defs>
    <style>
      .cls-1 {
        fill: url(#linear-gradient);
      }

      .cls-1, .cls-2, .cls-3 {
        stroke-width: 0px;
      }

      .cls-2 {
        fill: url(#linear-gradient-2);
      }

      .cls-3 {
        fill: #1e1e1e;
      }
    </style>
    <linearGradient id="linear-gradient" x1="0" y1="109.71" x2="163.04" y2="109.71" gradientUnits="userSpaceOnUse">
      <stop offset="0" stop-color="#f0047f"/>
      <stop offset=".12" stop-color="#f00678"/>
      <stop offset=".29" stop-color="#f20d67"/>
      <stop offset=".48" stop-color="#f6184b"/>
      <stop offset=".54" stop-color="#f81d40"/>
      <stop offset=".68" stop-color="#f81f3d"/>
      <stop offset=".78" stop-color="#f92937"/>
      <stop offset=".86" stop-color="#fa382b"/>
      <stop offset=".94" stop-color="#fc4e1b"/>
      <stop offset="1" stop-color="#ff660a"/>
    </linearGradient>
    <linearGradient id="linear-gradient-2" x1=".12" y1="133.79" x2="18.86" y2="133.79" xlink:href="#linear-gradient"/>
  </defs>
  <g id="Layer_1-2" data-name="Layer 1">
    <g>
      <g>
        <g>
          <path class="cls-1" d="m162.96,134.4c-.01,2.36-1.89,5.7-3.9,6.9-24.53,14.59-49.23,28.89-73.93,43.19-5.05,2.92-7.78,1.28-7.91-4.64-.13-5.33-.03-10.66-.03-15.08,3.94-1.33,7.36-1.94,10.21-3.55,17.61-9.93,35.06-20.14,52.65-30.1,3.09-1.75,4.52-3.73,4.5-7.46-.13-21,.14-42-.1-63-.03-2.45-1.65-5.96-3.62-7.14-18.21-10.87-36.59-21.44-55.11-31.76-2.07-1.15-5.89-1.19-7.94-.04-18.65,10.48-37.13,21.28-55.55,32.17-1.56.93-3.2,3.14-3.31,4.85-.41,6.09-.16,12.23-.16,19.2,2.1-.85,3.53-1.26,4.79-1.97,17.74-10.09,35.51-20.13,53.14-30.41,3.48-2.02,6.15-2.28,9.74-.1,11.17,6.78,22.67,13.05,33.84,19.83,1.84,1.12,3.77,3.79,3.86,5.82.57,12.86.58,25.75.91,38.63.12,4.99-1.54,8.41-6.21,10.93-11.67,6.31-23.01,13.23-34.67,19.54-1.58.86-4.59.25-6.4-.7-6.44-3.38-12.65-7.2-20.05-11.5v91.4H0v-26.25c0-3.37.01-6.74.02-10.11q.03-18.17,18.42-25.97c.15,2.1.39,3.92.4,5.74.05,11.1.12,22.21,0,33.31-.04,3.47,1.01,4.83,4.72,4.96,14.99.52,14.98.65,15-14.25.02-25.19.04-50.37.11-75.55.02-7.71,7.43-11.89,14.16-8,7.9,4.56,15.85,9.03,23.57,13.88,3.6,2.26,6.74,3.01,10.18.13.15-.13.33-.23.5-.32,20.11-11.43,20.2-11.43,18.97-34.61-.11-2.11-2.21-4.13-3.4-6.18-.09-.15-.32-.22-.49-.32-6.74-3.74-13.42-10.25-20.25-10.41-6.5-.15-13.24,6.18-19.73,9.9-18.57,10.65-37.06,21.42-55.59,32.13-1.68.97-3.43,1.83-6.06,3.22-.19-2.54-.41-4.09-.41-5.63.01-18.25.16-36.49.01-54.73-.03-3.85,1.22-6.12,4.6-8.03C29.05,28.57,53.23,14.56,77.61.92c2.1-1.17,5.96-1.26,8.01-.09,24.47,13.89,48.7,28.19,73.12,42.17,3.27,1.88,4.2,4.1,4.2,7.63-.02,27.92.21,55.85.02,83.77Z"/>
          <path class="cls-1" d="m18.75,136.18c-.04,1.4-.69,3.37-1.73,4.03-5.11,3.26-10.45,6.17-16.87,9.87,0-7.45-.11-13.66.1-19.87.04-1.1,1.14-2.54,2.15-3.17,5-3.07,10.14-5.92,16.43-9.55,0,7.26.11,12.98-.08,18.69Z"/>
        </g>
        <g>
          <path class="cls-1" d="m162.96,134.4c-.01,2.36-1.89,5.7-3.9,6.9-24.53,14.59-49.23,28.89-73.93,43.19-5.05,2.92-7.78,1.28-7.91-4.64-.13-5.33-.03-10.66-.03-15.08,3.94-1.33,7.36-1.94,10.21-3.55,17.61-9.93,35.06-20.14,52.65-30.1,3.09-1.75,4.52-3.73,4.5-7.46-.13-21,.14-42-.1-63-.03-2.45-1.65-5.96-3.62-7.14-18.21-10.87-36.59-21.44-55.11-31.76-2.07-1.15-5.89-1.19-7.94-.04-18.65,10.48-37.13,21.28-55.55,32.17-1.56.93-3.2,3.14-3.31,4.85-.41,6.09-.16,12.23-.16,19.2,2.1-.85,3.53-1.26,4.79-1.97,17.74-10.09,35.51-20.13,53.14-30.41,3.48-2.02,6.15-2.28,9.74-.1,11.17,6.78,22.67,13.05,33.84,19.83,1.84,1.12,3.77,3.79,3.86,5.82.57,12.86.58,25.75.91,38.63.12,4.99-1.54,8.41-6.21,10.93-11.67,6.31-23.01,13.23-34.67,19.54-1.58.86-4.59.25-6.4-.7-6.44-3.38-12.65-7.2-20.05-11.5v91.4H0v-26.25c0-3.37.01-6.74.02-10.11q.03-18.17,18.42-25.97c.15,2.1.39,3.92.4,5.74.05,11.1.12,22.21,0,33.31-.04,3.47,1.01,4.83,4.72,4.96,14.99.52,14.98.65,15-14.25.02-25.19.04-50.37.11-75.55.02-7.71,7.43-11.89,14.16-8,7.9,4.56,15.85,9.03,23.57,13.88,3.6,2.26,6.74,3.01,10.18.13.15-.13.33-.23.5-.32,20.11-11.43,20.2-11.43,18.97-34.61-.11-2.11-2.21-4.13-3.4-6.18-.09-.15-.32-.22-.49-.32-6.74-3.74-13.42-10.25-20.25-10.41-6.5-.15-13.24,6.18-19.73,9.9-18.57,10.65-37.06,21.42-55.59,32.13-1.68.97-3.43,1.83-6.06,3.22-.19-2.54-.41-4.09-.41-5.63.01-18.25.16-36.49.01-54.73-.03-3.85,1.22-6.12,4.6-8.03C29.05,28.57,53.23,14.56,77.61.92c2.1-1.17,5.96-1.26,8.01-.09,24.47,13.89,48.7,28.19,73.12,42.17,3.27,1.88,4.2,4.1,4.2,7.63-.02,27.92.21,55.85.02,83.77Z"/>
          <path class="cls-2" d="m18.75,136.18c-.04,1.4-.69,3.37-1.73,4.03-5.11,3.26-10.45,6.17-16.87,9.87,0-7.45-.11-13.66.1-19.87.04-1.1,1.14-2.54,2.15-3.17,5-3.07,10.14-5.92,16.43-9.55,0,7.26.11,12.98-.08,18.69Z"/>
        </g>
      </g>
      <g>
        <g>
          <path class="cls-3" d="m268.65,70.76c0,9.01-8.26,16.73-20.38,16.73-1.82,0-3.75-.11-5.79-.54-7.83-1.93-11.37-9.22-11.58-9.65h-.11c-1.18-2.68-2.15-5.47-2.79-8.26v64.89c0,2.36,1.29,4.4,3.33,5.36h-23.06c2.04-.96,3.33-3,3.33-5.25V54.46c0-2.36-1.29-4.4-3.33-5.47h29.6c15.02,0,20.49,2.47,24.45,6.44,3.97,3.86,6.33,9.33,6.33,15.34Zm-26.06,12.12c5.58,0,11.37-4.29,11.37-12.12s-4.93-20.06-21.67-20.06h-.54c-2.14,0-3.75,1.61-3.75,3.65v1.82c0,6.97,1.5,13.83,4.72,20.06.21.54.54,1.07.86,1.61,2.04,3.43,5.47,5.04,9.01,5.04Z"/>
          <path class="cls-3" d="m314.56,106.58c0,18.45-12.12,33.36-27.03,33.36s-26.92-14.91-26.92-33.36,12.01-33.25,26.92-33.25,27.03,14.91,27.03,33.25Zm-16.3.11c0-17.48-4.83-31.75-10.72-31.75s-10.62,14.27-10.62,31.75,4.72,31.64,10.62,31.64,10.72-14.16,10.72-31.64Z"/>
          <path class="cls-3" d="m355.21,73.34c7.29.11,11.8,6.11,11.8,12.33,0,3.43-1.29,6.86-4.29,9.55-4.29,3.65-7.72,4.83-7.72,4.83,1.07-2.04,1.5-4.29,1.5-6.43,0-5.79-3.54-10.83-8.26-10.83h-.64c-5.9.64-10.73,11.8-10.73,23.81v24.67c0,2.57,1.5,6.22,3.43,8.04h-23.06c2.04-.96,3.32-3,3.32-5.36v-47.51c0-.96-.43-1.82-.96-2.47-.64-.54-1.5-.96-2.36-.96,11.05-3.54,19.09-8.58,19.63-8.9v19.73c3-11.48,9.97-20.49,18.02-20.49h.32Z"/>
          <path class="cls-3" d="m390.49,74.09h6.11v1.72h-6.11v51.27c0,2.9.11,6.76,1.82,7.29.32.11.54.11.75.11,2.79,0,3.54-4.18,3.54-4.18,0,.32.11.64.11,1.07,0,3-1.5,8.04-11.37,8.04s-11.05-8.47-11.15-11.91v-51.7h-4.4v-1.72c12.55-2.15,20.7-18.23,20.7-18.23v18.23Z"/>
          <path class="cls-3" d="m436.4,60.89c0-1.07-.21-2.36-.54-3.65-1.39-5.47-5.58-6.54-6.97-6.54-4.5,0-8.26,4.18-8.26,11.15v12.33h9.54v1.61h-9.54v55.45c0,2.57,1.61,6.22,3.43,8.04h-23.06c2.04-.96,3.33-3,3.33-5.36v-58.13h-4.93v-1.61h4.93v-1.82c0-12.87,10.4-23.27,23.27-23.27h3c8.69,0,14.26,3.75,16.52,7.72,1.07,1.93,1.5,3.86,1.5,5.47,0,4.5-3.43,7.51-6.86,8.04-.86.11-1.82.21-2.79.21-3.32,0-6.97-.64-8.26-1.5,3.32-.97,5.68-3.86,5.68-8.15Z"/>
          <path class="cls-3" d="m487.45,106.58c0,18.45-12.12,33.36-27.03,33.36s-26.92-14.91-26.92-33.36,12.01-33.25,26.92-33.25,27.03,14.91,27.03,33.25Zm-16.3.11c0-17.48-4.83-31.75-10.72-31.75s-10.62,14.27-10.62,31.75,4.72,31.64,10.62,31.64,10.72-14.16,10.72-31.64Z"/>
          <path class="cls-3" d="m508.8,134.36c2.9,0,3.75-4.18,3.75-4.18.11.32.11.75.11,1.29,0,3-1.61,7.83-11.37,7.83s-10.94-8.47-11.05-11.8c-.11-.21-.11-23.49-.11-34.54v-23.92c-1.61-1.07-3.33-2.36-4.93-3.54-2.36-1.82-4.72-3.65-6.76-5.47-2.79-2.36-5.15-4.5-6.97-6.11-.86-.86-1.61-1.61-2.25-2.14-.11-.11-.21-.21-.43-.32-.32-.43-.54-.64-.64-.75-3.75-3.86-6.65-7.94-8.37-11.69-.96-2.14-1.82-4.93-1.82-7.83,0-2.25.54-4.61,1.82-6.54.75-1.18,1.93-2.47,3.86-3.43,0,0,1.07-.54,1.61-.75,3-1.18,6.33-1.82,9.87-1.82,6.97,0,14.69,2.68,21.34,9.44,9.76,9.87,10.08,25.96,10.08,28.31v19.41c2.04.54,3.97.75,5.79.75,3.97,0,7.19-1.07,9.55-2.15,1.5-.75,2.79-1.61,3.97-2.47-.43.11-.75.11-1.07.11-4.5,0-8.26-3.65-8.26-8.15s3.75-8.15,8.26-8.15,8.15,3.54,8.15,7.94v.21c-.11,5.79-6.65,10.19-10.3,12.01-2.57,1.18-6.01,2.25-10.19,2.25-1.82,0-3.86-.21-5.9-.75v51.16c0,2.57.11,5.25,1.5,5.68.32.11.54.11.75.11Zm-18.66-67.25v-15.55s0-17.48-8.26-25.85c-3-3-6.65-4.5-10.94-4.5-4.61,0-7.94,1.39-9.76,4.29-1.07,1.61-1.5,3.65-1.5,5.58,0,2.57.75,5.25,1.61,7.29,3.33,8.26,15.12,17.8,18.13,20.38,3.22,2.68,6.86,5.58,10.73,8.37Zm23.06,72.18c2.04-.96,3.43-3.11,3.43-5.36v-47.62c0-.86-.43-1.72-1.07-2.36-.54-.64-1.39-.96-2.36-.96,11.15-3.54,19.2-8.58,19.73-8.9v57.06c0,2.68,1.5,6.33,3.33,8.15h-23.06Z"/>
          <path class="cls-3" d="m592.88,106.58c0,18.45-12.12,33.36-27.03,33.36s-26.92-14.91-26.92-33.36,12.01-33.25,26.92-33.25,27.03,14.91,27.03,33.25Zm-16.3.11c0-17.48-4.83-31.75-10.72-31.75s-10.62,14.27-10.62,31.75,4.72,31.64,10.62,31.64,10.72-14.16,10.72-31.64Z"/>
        </g>
        <g>
          <g>
            <rect class="cls-3" x="203.27" y="173.61" width="71.15" height="3.77"/>
            <rect class="cls-3" x="517.2" y="173.61" width="71.16" height="3.77"/>
          </g>
          <g>
            <path class="cls-3" d="m285.45,192.48v-31.52h11.89c2.09,0,3.69.1,4.79.3,1.55.26,2.84.75,3.89,1.47,1.05.72,1.89,1.74,2.53,3.04.64,1.3.96,2.74.96,4.3,0,2.68-.85,4.95-2.56,6.8-1.71,1.86-4.79,2.78-9.24,2.78h-8.08v12.81h-4.17Zm4.17-16.53h8.15c2.69,0,4.61-.5,5.74-1.5,1.13-1,1.7-2.42,1.7-4.24,0-1.32-.33-2.45-1-3.39-.67-.94-1.54-1.56-2.63-1.86-.7-.19-2-.28-3.89-.28h-8.06v11.26Z"/>
            <path class="cls-3" d="m315.52,192.48v-31.52h4.17v31.52h-4.17Z"/>
            <path class="cls-3" d="m325.78,177.13c0-5.23,1.41-9.33,4.21-12.29s6.44-4.44,10.88-4.44c2.91,0,5.53.7,7.87,2.08,2.34,1.39,4.12,3.33,5.34,5.82,1.23,2.49,1.84,5.31,1.84,8.46s-.64,6.05-1.93,8.58c-1.29,2.52-3.12,4.43-5.48,5.73-2.36,1.3-4.92,1.95-7.65,1.95-2.97,0-5.62-.72-7.95-2.15-2.34-1.43-4.11-3.39-5.31-5.87-1.2-2.48-1.81-5.1-1.81-7.87Zm4.3.06c0,3.8,1.02,6.79,3.06,8.98,2.04,2.19,4.6,3.28,7.69,3.28s5.72-1.1,7.75-3.31,3.04-5.34,3.04-9.39c0-2.57-.43-4.8-1.3-6.72-.87-1.91-2.13-3.4-3.8-4.45-1.67-1.05-3.54-1.58-5.62-1.58-2.95,0-5.49,1.01-7.62,3.04-2.13,2.03-3.19,5.41-3.19,10.16Z"/>
            <path class="cls-3" d="m361.25,192.48v-31.52h4.28l16.55,24.75v-24.75h4v31.52h-4.28l-16.55-24.77v24.77h-4Z"/>
            <path class="cls-3" d="m393.17,192.48v-31.52h22.79v3.72h-18.62v9.65h17.43v3.7h-17.43v10.73h19.35v3.72h-23.52Z"/>
            <path class="cls-3" d="m422.54,192.48v-31.52h22.79v3.72h-18.62v9.65h17.43v3.7h-17.43v10.73h19.35v3.72h-23.52Z"/>
            <path class="cls-3" d="m451.89,192.48v-31.52h13.97c2.81,0,4.95.28,6.41.85s2.63,1.57,3.5,3,1.31,3.02,1.31,4.75c0,2.24-.72,4.12-2.17,5.65-1.45,1.53-3.68,2.51-6.71,2.92,1.1.53,1.94,1.05,2.52,1.57,1.22,1.12,2.37,2.51,3.46,4.19l5.48,8.58h-5.25l-4.17-6.56c-1.22-1.89-2.22-3.34-3.01-4.34s-1.49-1.71-2.12-2.11c-.62-.4-1.26-.68-1.9-.84-.47-.1-1.25-.15-2.32-.15h-4.84v14h-4.17Zm4.17-17.61h8.96c1.91,0,3.4-.2,4.47-.59,1.08-.39,1.89-1.02,2.45-1.89.56-.87.84-1.81.84-2.83,0-1.49-.54-2.72-1.62-3.68-1.08-.96-2.79-1.44-5.13-1.44h-9.98v10.43Z"/>
            <path class="cls-3" d="m482.2,182.36l3.93-.34c.19,1.58.62,2.87,1.3,3.88.68,1.01,1.74,1.83,3.17,2.45,1.43.62,3.04.94,4.84.94,1.59,0,3-.24,4.21-.71,1.22-.47,2.12-1.12,2.72-1.95.59-.82.89-1.72.89-2.7s-.29-1.85-.86-2.59c-.57-.74-1.52-1.36-2.84-1.86-.85-.33-2.72-.84-5.61-1.54-2.9-.69-4.92-1.35-6.08-1.97-1.5-.79-2.63-1.77-3.36-2.93-.74-1.17-1.11-2.48-1.11-3.92,0-1.59.45-3.08,1.35-4.46s2.22-2.43,3.96-3.15c1.73-.72,3.66-1.08,5.78-1.08,2.34,0,4.4.38,6.18,1.13,1.79.75,3.16,1.86,4.12,3.32s1.48,3.12,1.55,4.97l-4,.3c-.22-1.99-.94-3.5-2.18-4.51-1.24-1.02-3.07-1.53-5.49-1.53s-4.36.46-5.51,1.39c-1.15.92-1.73,2.04-1.73,3.34,0,1.13.41,2.06,1.23,2.79.8.73,2.9,1.48,6.29,2.25,3.39.77,5.71,1.44,6.98,2.01,1.83.85,3.19,1.92,4.06,3.21.87,1.3,1.31,2.79,1.31,4.48s-.48,3.26-1.44,4.74c-.96,1.48-2.34,2.64-4.14,3.46-1.8.82-3.82,1.24-6.07,1.24-2.85,0-5.24-.42-7.17-1.25s-3.44-2.08-4.54-3.75c-1.1-1.67-1.67-3.56-1.73-5.67Z"/>
          </g>
        </g>
      </g>
    </g>
  </g>
</svg>